<svg xmlns:dc="http://purl.org/dc/elements/1.1/" xmlns:cc="http://creativecommons.org/ns#" xmlns:rdf="http://www.w3.org/1999/02/22-rdf-syntax-ns#" xmlns:svg="http://www.w3.org/2000/svg" xmlns="http://www.w3.org/2000/svg" xmlns:sodipodi="http://sodipodi.sourceforge.net/DTD/sodipodi-0.dtd" xmlns:inkscape="http://www.inkscape.org/namespaces/inkscape" version="1.1" x="0px" y="0px" viewBox="0 0 100 125"><g transform="translate(0,-952.36218)"><path style="text-indent:0;text-transform:none;direction:ltr;block-progression:tb;baseline-shift:baseline;color:#000000;enable-background:accumulate;" d="m 49.963255,964.36277 c -0.255488,0.007 -0.707563,-0.014 -1.218578,0.1875 -0.511015,0.20151 -1.028803,0.58179 -1.624771,1.18749 L 11.28121,1001.6437 a 1.0053577,1.0054917 0 0 0 1.437297,1.4063 l 35.807451,-35.906 c 0.470458,-0.47814 0.764958,-0.65076 0.937367,-0.71875 0.153487,-0.0605 0.280181,-0.0567 0.49993,-0.0625 0.03148,8.4e-4 0.0354,-7.2e-4 0.06249,0 0.219814,0.006 0.346549,0.002 0.49993,0.0625 0.17229,0.0679 0.466927,0.24046 0.937367,0.71875 l 35.807451,35.906 a 1.0053577,1.0054917 0 0 0 1.437298,-1.4063 L 52.869095,965.73776 c -0.595987,-0.60592 -1.113638,-0.98598 -1.624771,-1.18749 -0.511133,-0.20151 -0.963205,-0.18067 -1.218578,-0.1875 a 0.99995899,1.0000923 0 0 0 -0.06249,0 z m -30.089507,37.96843 a 0.99995899,1.0000923 0 0 0 -0.874877,1.0313 l 0,35.9997 a 0.99995899,1.0000923 0 0 0 0.999859,1 l 1.999718,0 a 0.99995899,1.0000923 0 1 0 0,-2 l -0.999859,0 0,-34.9997 a 0.99995899,1.0000923 0 0 0 -1.124841,-1.0313 z m 59.99154,0 a 0.99995899,1.0000923 0 0 0 -0.874876,1.0313 l 0,34.9997 -17.997462,0 0,-24.9998 a 0.99995899,1.0000923 0 0 0 -0.999859,-1 c -6.834174,0.018 -13.871378,-0.074 -19.997181,0 a 0.99995899,1.0000923 0 0 0 -0.999859,1 l 0,24.9998 -10.998449,0 a 0.99995899,1.0000923 0 1 0 0,2 l 51.992669,0 a 0.99995899,1.0000923 0 0 0 0.999859,-1 l 0,-35.9997 a 0.99995899,1.0000923 0 0 0 -1.124842,-1.0313 z m -38.869519,12.0312 c 5.562004,-0.052 11.812888,0.01 17.997463,0 l 0,23.9998 -17.997463,0 0,-23.9998 z" fill="#000000" fill-opacity="1" stroke="none" marker="none" visibility="visible" display="inline" overflow="visible"/></g><text x="0" y="115" fill="#000000" font-size="5px" font-weight="bold" font-family="'Helvetica Neue', Helvetica, Arial-Unicode, Arial, Sans-serif">Created by nauraicon</text><text x="0" y="120" fill="#000000" font-size="5px" font-weight="bold" font-family="'Helvetica Neue', Helvetica, Arial-Unicode, Arial, Sans-serif">from the Noun Project</text></svg>